<?xml version="1.0" encoding="UTF-8" standalone="no"?>
<!-- Created with Inkscape (http://www.inkscape.org/) -->

<svg
   xmlns:dc="http://purl.org/dc/elements/1.1/"
   xmlns:cc="http://creativecommons.org/ns#"
   xmlns:rdf="http://www.w3.org/1999/02/22-rdf-syntax-ns#"
   xmlns:svg="http://www.w3.org/2000/svg"
   xmlns="http://www.w3.org/2000/svg"
   xmlns:sodipodi="http://sodipodi.sourceforge.net/DTD/sodipodi-0.dtd"
   xmlns:inkscape="http://www.inkscape.org/namespaces/inkscape"
   version="1.2"
   width="367pt"
   height="346pt"
   viewBox="0 0 367 346"
   id="svg3179"
   inkscape:version="0.48.5 r10040"
   sodipodi:docname="test.svg">
  <sodipodi:namedview
     pagecolor="#ffffff"
     bordercolor="#666666"
     borderopacity="1"
     objecttolerance="10"
     gridtolerance="10"
     guidetolerance="10"
     inkscape:pageopacity="0"
     inkscape:pageshadow="2"
     inkscape:window-width="1920"
     inkscape:window-height="1023"
     id="namedview80"
     showgrid="false"
     inkscape:zoom="1.543373"
     inkscape:cx="233.99473"
     inkscape:cy="175.04039"
     inkscape:window-x="-4"
     inkscape:window-y="0"
     inkscape:window-maximized="1"
     inkscape:current-layer="svg3179" />
  <metadata
     id="metadata3333">
    <rdf:RDF>
      <cc:Work
         rdf:about="">
        <dc:format>image/svg+xml</dc:format>
        <dc:type
           rdf:resource="http://purl.org/dc/dcmitype/StillImage" />
        <dc:title />
      </cc:Work>
    </rdf:RDF>
  </metadata>
  <defs
     id="defs3331" />
  <path
     d="m 0,0 135.89,0 c -1.93,5.61 -3.27,11.39 -4.4,17.21 -0.99,-2.98 -1.97,-5.96 -3.04,-8.9 -2.41,5.04 -3.86,10.46 -4.96,15.92 -0.48,-2.99 -0.97,-5.97 -1.53,-8.95 -3.85,3.09 -7.43,6.49 -10.91,9.99 -3.42,-6.15 -12.94,-7.22 -17.08,-1.31 -3.23,3.91 -2.24,10.24 2.11,12.86 2.07,1.56 5.14,2.3 5.99,5.03 4.11,10.99 7.51,22.25 11.79,33.18 -9.44,14.11 -9.28,31.69 -10.8,47.95 -0.19,11.32 0.01,22.65 -0.06,33.98 -14.29,-0.09 -28.48,2.03 -42.77,2.12 1.45,-7.17 1.21,-15.1 -2.96,-21.36 -1.82,-3.27 -5.35,-5.8 -9.17,-5.72 -2.98,0.49 -5.49,2.31 -8.06,3.78 C 35.51,132.93 29.96,130.75 24.6,132.55 15.45,135.3 10.04,144.24 6.51,152.53 2.64,161.21 1.4,170.67 0,179.97 L 0,0 z"
     id="path3181"
     style="opacity:0;fill:#ffffff" />
  <path
     d="m 135.89,0 0.98,0 c 3.71,2.89 3.23,7.82 3.23,12.01 -0.16,6.13 0.5,12.23 1.28,18.3 1.72,-6.77 3.13,-13.67 5.9,-20.12 3.03,4.2 4.79,9.09 6.13,14.04 4.98,-6.15 9.27,-12.97 15.44,-18.04 2.99,8.83 3.71,18.18 5.8,27.22 0.67,-11.13 1.72,-22.25 1.39,-33.41 l 2.92,0 c 3.39,6.53 3.42,14.07 4.25,21.21 1.1,-3.86 2.01,-7.86 4.04,-11.37 1.89,0.14 2.57,2.1 3.29,3.55 1.65,3.85 2.76,7.9 4.1,11.87 4.05,-7.14 7.93,-14.38 12.36,-21.29 0.98,0.42 1.96,0.84 2.94,1.27 0.27,10.73 -0.28,21.47 0.32,32.2 2.09,-8.82 1.61,-18.19 4.9,-26.71 1.13,0.2 1.82,0.85 2.08,1.95 1.7,5.42 1.88,11.17 3.13,16.7 1.46,-6.82 2.56,-13.72 4.33,-20.47 1.35,0.48 2.7,0.95 4.06,1.42 1.22,8.97 2.11,17.98 3.56,26.92 3.19,-12.02 4.67,-24.52 9.12,-36.19 1.88,3.08 3.23,6.49 3.43,10.13 0.55,7.38 1.23,14.75 2.42,22.07 1.39,-5.46 2.8,-10.93 5.1,-16.09 1.72,3.68 2.95,7.56 3.98,11.49 0.76,-0.21 1.52,-0.42 2.28,-0.63 0.31,1.12 0.61,2.24 0.91,3.35 -0.82,2.26 -1.73,4.49 -2.63,6.72 -0.69,-0.05 -2.06,-0.15 -2.75,-0.2 -0.53,-4.06 -1.07,-8.11 -1.61,-12.17 -1.57,6.56 -2.81,13.33 -6.21,19.26 -3.3,-11.14 -2.94,-22.88 -4.74,-34.28 -3.26,11.7 -4.97,23.77 -8.46,35.41 -0.73,-0.05 -2.2,-0.15 -2.94,-0.2 -1.27,-10.43 -2.69,-20.83 -3.67,-31.29 -2.02,8.24 -3.18,16.65 -5,24.93 -1.1,0.16 -2.2,0.33 -3.29,0.49 -0.62,-5.85 -1.37,-11.69 -2.65,-17.44 -1.63,10.76 -3.22,21.53 -4.84,32.29 -1.24,0.05 -2.48,0.09 -3.72,0.14 -0.19,-15.11 0.1,-30.21 -0.13,-45.32 -4.39,6.49 -6.58,14.8 -13.4,19.33 -2.01,-4.34 -3.68,-8.82 -5.31,-13.31 -1.21,4.39 -2.36,8.78 -3.49,13.19 -1.17,0.01 -2.34,0.02 -3.5,0.03 -0.54,-4.79 -1.1,-9.58 -1.73,-14.36 -1.56,7.07 -1.47,14.31 -1.47,21.5 0.29,3.17 -1.81,5.64 -3.69,7.9 -3.65,-10.7 -4.71,-22.04 -6.7,-33.12 -5.12,6.28 -9.63,13.07 -15.37,18.84 -1.27,-3.39 -2.2,-6.92 -3.78,-10.18 -0.27,-0.03 -0.82,-0.07 -1.1,-0.09 -2.25,7.43 -3.53,15.12 -5.63,22.6 -1.23,-0.4 -2.45,-0.8 -3.68,-1.2 0.28,-11.11 -0.96,-22.16 -1.35,-33.25 -1.4,6.21 -2.78,12.43 -4.57,18.55 -0.67,-0.07 -2,-0.22 -2.66,-0.29 -0.56,-2.12 -1.12,-4.23 -1.7,-6.34 -1.08,3.79 -2.1,7.59 -3.11,11.4 -1.1,0.02 -2.21,0.05 -3.31,0.07 -0.44,-3.39 -0.92,-6.79 -1.43,-10.17 -2.73,2.68 -5.45,5.36 -8.32,7.9 -0.15,-1.16 -0.34,-2.31 -0.57,-3.45 3.48,-3.5 7.06,-6.9 10.91,-9.99 0.56,2.98 1.05,5.96 1.53,8.95 1.1,-5.46 2.55,-10.88 4.96,-15.92 1.07,2.94 2.05,5.92 3.04,8.9 1.13,-5.82 2.47,-11.6 4.4,-17.21 z"
     id="path3183"
     style="fill:#54a8e7" />
  <path
     d="m 136.87,0 39.17,0 c 0.33,11.16 -0.72,22.28 -1.39,33.41 -2.09,-9.04 -2.81,-18.39 -5.8,-27.22 -6.17,5.07 -10.46,11.89 -15.44,18.04 -1.34,-4.95 -3.1,-9.84 -6.13,-14.04 -2.77,6.45 -4.18,13.35 -5.9,20.12 -0.78,-6.07 -1.44,-12.17 -1.28,-18.3 0,-4.19 0.48,-9.12 -3.23,-12.01 z"
     id="path3185"
     style="opacity:0;fill:#ffffff" />
  <path
     d="M 178.96,0 367,0 l 0,173.95 c -2.08,-13.53 -4.7,-27.65 -13.09,-38.87 -4.39,-5.94 -11.88,-10.67 -19.51,-8.76 -4.51,0.81 -7.68,4.31 -10.71,7.44 -3.06,-2.21 -6.24,-5.65 -10.41,-4.72 -5.4,1.35 -7.89,7.11 -9.26,11.98 -1.76,5.92 -0.8,12.08 0.13,18.04 -10.7,-1.48 -21.52,-1.74 -32.25,-2.88 -3.34,-0.25 -6.69,-0.21 -10.03,-0.25 -0.02,-6.67 1.36,-13.25 1.16,-19.92 -0.06,-12.35 -0.03,-24.7 0,-37.05 0.06,-7.5 -1.84,-14.82 -4.15,-21.89 -1.04,-2.45 -0.18,-5.03 0.77,-7.35 3.7,-9.09 7.1,-18.29 10.71,-27.41 1.37,-4.65 7.25,-5.92 8.37,-10.76 1.89,-7.08 -6.41,-13.83 -13.05,-10.98 -3.59,1.02 -5.31,4.48 -7.03,7.46 -0.76,0.21 -1.52,0.42 -2.28,0.63 -1.03,-3.93 -2.26,-7.81 -3.98,-11.49 -2.3,5.16 -3.71,10.63 -5.1,16.09 -1.19,-7.32 -1.87,-14.69 -2.42,-22.07 -0.2,-3.64 -1.55,-7.05 -3.43,-10.13 -4.45,11.67 -5.93,24.17 -9.12,36.19 -1.45,-8.94 -2.34,-17.95 -3.56,-26.92 -1.36,-0.47 -2.71,-0.94 -4.06,-1.42 -1.77,6.75 -2.87,13.65 -4.33,20.47 -1.25,-5.53 -1.43,-11.28 -3.13,-16.7 -0.26,-1.1 -0.95,-1.75 -2.08,-1.95 -3.29,8.52 -2.81,17.89 -4.9,26.71 -0.6,-10.73 -0.05,-21.47 -0.32,-32.2 -0.98,-0.43 -1.96,-0.85 -2.94,-1.27 -4.43,6.91 -8.31,14.15 -12.36,21.29 -1.34,-3.97 -2.45,-8.02 -4.1,-11.87 -0.72,-1.45 -1.4,-3.41 -3.29,-3.55 -2.03,3.51 -2.94,7.51 -4.04,11.37 C 182.38,14.07 182.35,6.53 178.96,0 z"
     id="path3187"
     style="opacity:0;fill:#ffffff" />
  <path
     d="m 132.15,26.15 c 1.79,-6.12 3.17,-12.34 4.57,-18.55 0.39,11.09 1.63,22.14 1.35,33.25 1.23,0.4 2.45,0.8 3.68,1.2 2.1,-7.48 3.38,-15.17 5.63,-22.6 0.28,0.02 0.83,0.06 1.1,0.09 1.58,3.26 2.51,6.79 3.78,10.18 5.74,-5.77 10.25,-12.56 15.37,-18.84 1.99,11.08 3.05,22.42 6.7,33.12 1.88,-2.26 3.98,-4.73 3.69,-7.9 0,-7.19 -0.09,-14.43 1.47,-21.5 0.63,4.78 1.19,9.57 1.73,14.36 1.16,-0.01 2.33,-0.02 3.5,-0.03 1.13,-4.41 2.28,-8.8 3.49,-13.19 1.63,4.49 3.3,8.97 5.31,13.31 6.82,-4.53 9.01,-12.84 13.4,-19.33 0.23,15.11 -0.06,30.21 0.13,45.32 1.24,-0.05 2.48,-0.09 3.72,-0.14 1.62,-10.76 3.21,-21.53 4.84,-32.29 1.28,5.75 2.03,11.59 2.65,17.44 1.09,-0.16 2.19,-0.33 3.29,-0.49 1.82,-8.28 2.98,-16.69 5,-24.93 0.98,10.46 2.4,20.86 3.67,31.29 0.74,0.05 2.21,0.15 2.94,0.2 3.49,-11.64 5.2,-23.71 8.46,-35.41 1.8,11.4 1.44,23.14 4.74,34.28 3.4,-5.93 4.64,-12.7 6.21,-19.26 0.54,4.06 1.08,8.11 1.61,12.17 0.69,0.05 2.06,0.15 2.75,0.2 0.9,-2.23 1.81,-4.46 2.63,-6.72 0.3,1.87 1.74,3.94 0.59,5.75 -3.18,5.66 -7.45,10.61 -10.96,16.07 -2.35,3.27 -4.39,6.85 -7.33,9.65 -4.97,-0.34 -9.8,-1.9 -14.81,-1.86 -21.35,-0.01 -42.7,0.04 -64.05,-0.01 -11.32,-0.26 -22.62,1.11 -33.74,3.18 -5.18,-9.24 -10.63,-18.32 -16.14,-27.37 -1.68,-2.38 -1.4,-5.33 -1.5,-8.07 2.87,-2.54 5.59,-5.22 8.32,-7.9 0.51,3.38 0.99,6.78 1.43,10.17 1.1,-0.02 2.21,-0.05 3.31,-0.07 1.01,-3.81 2.03,-7.61 3.11,-11.4 0.58,2.11 1.14,4.22 1.7,6.34 0.66,0.07 1.99,0.22 2.66,0.29 z"
     id="path3189"
     style="opacity:0;fill:#ffffff" />
  <path
     d="m 93.97,23.96 c 4.14,-5.91 13.66,-4.84 17.08,1.31 0.23,1.14 0.42,2.29 0.57,3.45 0.1,2.74 -0.18,5.69 1.5,8.07 5.51,9.05 10.96,18.13 16.14,27.37 19.38355,-3.75023 37.99423,-4.150295 56.28741,-4.068829 19.75543,0.09843 38.26097,0.430633 56.31259,2.758829 2.94,-2.8 4.98,-6.38 7.33,-9.65 3.51,-5.46 7.78,-10.41 10.96,-16.07 1.15,-1.81 -0.29,-3.88 -0.59,-5.75 -0.3,-1.11 -0.6,-2.23 -0.91,-3.35 1.72,-2.98 3.44,-6.44 7.03,-7.46 6.64,-2.85 14.94,3.9 13.05,10.98 -1.12,4.84 -7,6.11 -8.37,10.76 -3.61,9.12 -7.01,18.32 -10.71,27.41 -0.95,2.32 -1.81,4.9 -0.77,7.35 8.82695,27.28587 2.89013,52.97658 2.77787,78.2236 21.78591,1.56074 19.32337,1.0816 42.49213,3.7664 -0.93,-5.96 -1.89,-12.12 -0.13,-18.04 1.37,-4.87 3.86,-10.63 9.26,-11.98 4.17,-0.93 7.35,2.51 10.41,4.72 3.03,-3.13 6.2,-6.63 10.71,-7.44 7.63,-1.91 15.12,2.82 19.51,8.76 15.363,23.91356 16.51024,59.81435 6.5,84.34 -1.07,3.07 -3.2,5.96 -3.07,9.32 2.77,19.66 4.22,40.98 3.22,60.96 -0.12,5.43 -1.02,8.23 -5.92,9.96 -7.2,1.42 -14.57,1.16 -21.83,2.05 -7.96,0.37 -15.86,1.62 -23.84,1.33 -3.65,10.63 -8.09,21.64 -16.76,29.22 -6.81,6.17 -15.87,10.21 -25.17,9.78 -9.74,-0.56 -18.85,-5.63 -25.27,-12.84 -4.99,-6.05 -8.93,-12.91 -11.79,-20.21 -33.09303,1.94181 -62.40774,0.48429 -92.6,-0.99 -3.06,9.74 -7.21,19.51 -14.57,26.81 -5.33,5.44 -12.09,9.48 -19.54,11.19 l -9.55,0 C 84.96,343.71 76.99,338.71 71.29,331.66 64.59,322.78 60.08,312.24 58.38,301.24 45.39,299.01 32.13,298.8 19.1,296.89 12.092903,294.63091 12.575857,280.18827 12.181088,273.59494 11.151482,257.10763 14.032219,240.69925 11.12,230.93 8.81,226.44 6.27,222.03 4.82,217.16 -3.8850449,190.53742 3.1244864,141.01156 24.6,132.55 c 5.36,-1.8 10.91,0.38 15.44,3.23 2.57,-1.47 5.08,-3.29 8.06,-3.78 3.82,-0.08 7.35,2.45 9.17,5.72 4.17,6.26 4.61,14.89 3.16,22.06 14.99,-1.59 27.28,-2.51 42.37,-3.22 0.93089,-27.08408 -2.11754,-60.887245 11.06,-81.53 C 109.58,64.1 106.18,52.84 102.07,41.85 101.22,39.12 98.15,38.38 96.08,36.82 91.73,34.2 90.74,27.87 93.97,23.96 z"
     id="path3191"
     style="fill:#000000" />
  <path
     d="m 100.4,25.23 c 3.49,-1.51 8.15,2.54 6.06,6.11 -1.48,3.57 -7.43,3.57 -8.92,0 -1.46,-2.32 0.38,-5.48 2.86,-6.11 z"
     id="path3193"
     style="fill:#6db6eb" />
  <path
     d="m 267.4,25.23 c 3.22,-1.34 7.55,1.9 6.37,5.4 -1.03,4.13 -7.6,4.59 -9.23,0.71 -1.47,-2.32 0.38,-5.48 2.86,-6.11 z"
     id="path3195"
     style="fill:#6db6eb" />
  <path
     d="m 106.69,36.48 c 5.16,6.71 8.84,14.39 13.28,21.57 1.51,2.55 3.26,5.01 4.23,7.84 -2.13,1.93 -4.59,3.42 -6.91,5.09 -1.85,-7.22 -4.84,-14.05 -7.19,-21.1 -1.44,-4.37 -3.39,-8.71 -3.41,-13.4 z"
     id="path3197"
     style="fill:#cbcbcb" />
  <path
     d="m 246.96,64.87 c 6.47,-9.04 12.61,-18.3 19.27,-27.19 -0.81,4.02 -2.35,7.84 -3.92,11.61 -2.78,6.61 -5.11,13.39 -7.75,20.04 -2.57,-1.43 -5.08,-2.96 -7.6,-4.46 z"
     id="path3199"
     style="fill:#cbcbcb" />
  <path
     d="M 140.26,67.31 C 163.78284,64.790796 189.70837,65.990385 211,66 c 16.10093,0.718194 37.0556,-1.3283 43.55147,15.731421 1.69,5.97 3.54853,15.838579 3.48853,22.058579 0.81406,19.77956 -0.56836,33.30898 -1.22,51.25 -22.67596,-1.23461 -47.38194,-1.75457 -68.11,-2.04 2.92,-1.4 6.21,-2.62 8.11,-5.42 1.68,-4.48 -2.85,-7.73 -6.61,-8.79 -6,-1.73 -13.46,-1.26 -18.04,3.41 -1.58,1.31 -1.41,3.58 -0.99,5.38 1.9,2.8 5.19,4.03 8.12,5.42 -23.78976,-0.005 -49.73259,1.59468 -71.29,2.99 -0.27923,-7.66433 -0.11207,-13.62268 0.0148,-22.26349 0.43857,-29.86649 1.00414,-61.852044 32.2352,-66.41651 z"
     id="path3201"
     style="fill:#cbcbcb" />
  <path
     d="m 129.58,92.57 c 3.82,-5.37 9.39,-10.74 16.42,-10.66 7.03,-0.08 12.6,5.29 16.42,10.66 5.12,8.05 8.71,17.13 10.49,26.5 -2.05985,2.39 -0.64294,0.86294 -3.74,3.57 -3.53,-10.25 -5.63,-21.46 -12.91,-29.91 -2.96,-3.35 -7.29,-6.54 -12.01,-5.63 -4.81,1.24 -8.48,5 -11.08,9.06 -4.74,7.43 -7.26,15.95 -10.24,24.17 -1.42,-0.44 -2.83,-0.89 -4.23,-1.35 2.09,-9.33 5.8,-18.31 10.88,-26.41 z"
     id="path3203"
     style="fill:#000000" />
  <path
     d="m 206.58,92.56 c 3.42,-5.04 8.62,-9.14 14.66,-10.42 6.02,-0.65 11.92,2.33 16.03,6.59 6.24,6.47 9.96,14.9 12.65,23.37 0.94,3.12 2,6.28 2.09,9.57 -1.23,0.76 -2.54,1.35 -3.83,1.97 -2.76,-7.27 -3.99,-15.14 -7.86,-21.96 -3.22,-5.54 -6.85,-11.71 -13.41,-13.65 -4.85,-2.35 -10.43,0.44 -13.71,4.17 -7.62,8.48 -9.78,19.98 -13.37,30.43 -1.39,-1.01 -0.44736,-0.32147 -3.72,-3.56 1.98,-9.33 5.23,-18.49 10.47,-26.51 z"
     id="path3205"
     style="fill:#000000" />
  <path
     d="m 338.19,130.51 c 2.41,0.93 4.94,1.72 7.05,3.28 2.18,5 1.75,10.68 2.84,15.96 -2.38,0.83 -4.75,1.65 -7.13,2.47 -1.26,-7.19 -1.68,-14.49 -2.76,-21.71 z"
     id="path3207"
     style="fill:#cbcbcb" />
  <path
     d="m 333.59,132.33 c 0.65,7.01 1.43,14.03 2.65,20.97 -3.27,0.6 -7.01,1.52 -9.96,-0.59 -1.05,-2.02 -1.26,-4.32 -1.62,-6.52 -1.43584,-5.03743 6.70202,-12.75346 8.93,-13.86 z"
     id="path3209"
     style="fill:#cbcbcb" />
  <path
     d="m 310.92,136.11 c 1.71,-0.96 3.58,-2.49 5.67,-1.94 1.27,1.16 2.3,2.55 3.37,3.89 -0.36,0.89 -0.71,1.77 -1.05,2.66 -2.49,-1.72 -6.89,-1.59 -7.99,-4.61 z"
     id="path3211"
     style="fill:#cbcbcb" />
  <path
     d="m 29.38,136.76 c 2.6,0.77 5.19,1.6 7.77,2.44 -2.47,6.45 -4.52,13.05 -6.39,19.7 -2.24,-1.13 -4.48,-2.22 -6.75,-3.27 2.01,-6.23 3.43,-12.62 5.37,-18.87 z"
     id="path3213"
     style="fill:#cbcbcb" />
  <path
     d="m 44.68,137.86 c 2.17,-0.23 4.35,-0.41 6.53,-0.44 -1.77,1.98 -3.52,3.99 -5.27,5.99 -0.46,-1.84 -0.87,-3.69 -1.26,-5.55 z"
     id="path3215"
     style="fill:#cbcbcb" />
  <path
     d="m 23.22,138.63 c -10.864316,32.50093 -13.122607,61.37961 -5.6,92.21 -18.6146444,-22.92213 -14.3855717,-77.61809 5.6,-92.21 z"
     id="path3217"
     style="fill:#6db6eb" />
  <path
     d="m 352.03,141.6 c 14.69316,30.22801 14.48593,59.26505 -1.79,85.94 6.39819,-30.7589 4.74629,-57.11451 1.79,-85.94 z"
     id="path3219"
     style="fill:#6db6eb" />
  <path
     d="m 51.98,142.96 c 0.74,0.02 2.23,0.05 2.98,0.06 1.42,5.69 1.44,11.65 -0.14,17.3 -1.44,-3.47 -3.23,-6.86 -4.08,-10.55 -0.06,-2.33 0.72,-4.57 1.24,-6.81 z"
     id="path3221"
     style="fill:#cbcbcb" />
  <path
     d="m 175.44,145.83 c 2.41,-1.22 4.82,-2.76 7.6,-2.91 3.4,-0.28 6.6,1.11 9.66,2.39 -5.13,3.7 -11.82,3.29 -17.26,0.52 z"
     id="path3223"
     style="fill:#d14553" />
  <path
     d="m 308.17,144.31 c 1.46,-1.7 3.93,-1.21 5.91,-1.65 1.89,5.48 -0.73,10.92 -2.57,16.02 -0.36,0.14 -1.08,0.4 -1.44,0.54 -2.05,-4.65 -2.61,-9.9 -1.9,-14.91 z"
     id="path3225"
     style="fill:#cbcbcb" />
  <path
     d="m 40.45,143.66 c 2.78,3.08 5.33,6.54 6.42,10.6 0.61,3.12 -0.87,6.1 -1.77,9.01 -3.45,-0.13 -6.9,-0.6 -10.09,-1.98 2.12,-5.78 3.9,-11.67 5.44,-17.63 z"
     id="path3227"
     style="fill:#cbcbcb" />
  <path
     d="m 318.37,153.09 c 0.39,-0.03 1.19,-0.1 1.58,-0.13 3.33,9.08 3.32,19.03 2.87,28.58 -3.23,-1.76 -6.07,-4.09 -8.93,-6.38 2.01,-7.25 2.73,-14.77 4.48,-22.07 z"
     id="path3229"
     style="fill:#cbcbcb" />
  <path
     d="m 340.92,157.2 c 2.62,-0.87 5.25,-1.72 7.9,-2.51 0.01,5.73 0.89,11.39 1.34,17.09 -2.72,1.49 -5.4,3.03 -8.08,4.57 -0.04,-6.4 0.15,-12.85 -1.16,-19.15 z"
     id="path3231"
     style="fill:#cbcbcb" />
  <path
     d="m 308.08,164.09 c 1.52,0.93 1.14,3.85 2.43,5.06 -85.43473,-9.62568 -174.94321,-6.82267 -254.9,-0.62 0.84,-1.5 1.67,-3 2.51,-4.5 30.021307,-3.70817 157.53799,-11.83744 249.96,0.06 z"
     id="path3233"
     style="fill:#6db6eb" />
  <path
     d="m 326.82,158.99 c 3.2,0.47 7.54,-1.29 9.94,1.36 0.66,6.16 0.08,12.38 0.22,18.57 -2.94,0.91 -5.9,1.77 -8.9,2.44 0.09,-7.48 -0.13,-14.96 -1.26,-22.37 z"
     id="path3235"
     style="fill:#cbcbcb" />
  <path
     d="m 22.45,160.49 c 2.31,1.04 4.54,2.22 6.72,3.51 -1.4,5.72 -2.07,11.58 -3.25,17.35 -2.41,-0.73 -4.8,-1.52 -7.17,-2.34 1.13,-6.19 2.4,-12.36 3.7,-18.52 z"
     id="path3237"
     style="fill:#cbcbcb" />
  <path
     d="m 33.93,166.28 c 3.6,1.19 7.35,1.8 11.13,1.99 -1.09,5.59 -1.91,11.24 -2.28,16.93 -4.09,-0.11 -8.12,-0.85 -12.02,-2.08 0.97,-5.63 1.84,-11.28 3.17,-16.84 z"
     id="path3239"
     style="fill:#cbcbcb" />
  <path
     d="m 50.43,165.57 c 0.91,4.94 2.32,9.87 2.35,14.92 -1.53,1.15 -3.22,2.07 -4.89,3 0.5,-6.02 1.74,-11.94 2.54,-17.92 z"
     id="path3241"
     style="fill:#cbcbcb" />
  <path
     d="m 342.36,182.42 c 2.07,-2.15 5.07,-3.07 7.64,-4.5 0.23,8.66 0,17.3 -1.2,25.89 -3.22,1.19 -6.41,2.43 -9.65,3.56 0.84,-5.76 1.66,-11.54 1.89,-17.37 0.13,-2.56 0.45,-5.15 1.32,-7.58 z"
     id="path3249"
     style="fill:#cbcbcb" />
  <path
     d="m 313.89,182.07 c 2.89,1.83 5.98,3.35 9.21,4.51 -0.42,6.97 -1.55,13.89 -2.95,20.74 -1.33,-0.51 -2.64,-1.02 -3.96,-1.52 -0.76,-7.91 -2.43,-15.75 -2.3,-23.73 z"
     id="path3255"
     style="fill:#cbcbcb" />
  <path
     d="m 17.99,184.04 c 2.67,0.99 5.36,1.94 8.04,2.94 -0.25,8.49 -0.03,16.97 1.1,25.39 -2.64,-0.96 -6.27,-0.98 -7.77,-3.74 -0.85,-8.16 -1.69,-16.36 -1.37,-24.59 z"
     id="path3257"
     style="fill:#cbcbcb" />
  <path
     d="m 328.17,186.34 c 3.01,-0.5 5.97,-1.21 8.89,-2.09 -1.46,8.55 -1.78,17.26 -3.31,25.82 -2.97,0.12 -5.94,0.09 -8.9,-0.05 1.1,-7.89 3.09,-15.68 3.32,-23.68 z"
     id="path3259"
     style="fill:#cbcbcb" />
  <path
     d="m 47.05,189.42 c 2.02,-0.82 4.01,-1.73 6,-2.63 0.15,6.79 -0.16,14.66 -1.47,21.31 -0.17,2.2 -2.82,2.28 -4.29,3.64 -0.55,-7.43 -0.25,-14.88 -0.24,-22.32 z"
     id="path3261"
     style="fill:#cbcbcb" />
  <path
     d="m 31.05,188.88 c 3.63,0.59 7.28,1.11 10.95,1.33 0.18,7.93 -0.67,15.96 1,23.79 -3.6,0 -7.2,0 -10.8,0 -1.07,-8.33 -1.53,-16.71 -1.15,-25.12 z"
     id="path3265"
     style="fill:#cbcbcb" />
  <path
     d="m 360.41,219.42 c 3.79,-8.67 4.92,-18.15 6.59,-27.38 l 0,153.96 -263.73,0 c 7.45,-1.71 14.21,-5.75 19.54,-11.19 7.36,-7.3 11.51,-17.07 14.57,-26.81 7.22,-0.25 14.43,0.15 21.6,0.94 23.66,0.16 47.34,0.02 71,0.05 2.86,7.3 6.8,14.16 11.79,20.21 6.42,7.21 15.53,12.28 25.27,12.84 9.3,0.43 18.36,-3.61 25.17,-9.78 8.67,-7.58 13.11,-18.59 16.76,-29.22 7.98,0.29 15.88,-0.96 23.84,-1.33 7.26,-0.89 14.63,-0.63 21.83,-2.05 4.9,-1.73 9.2,-6.23 9.32,-11.66 1,-19.98 -3.85,-39.6 -6.62,-59.26 -0.13,-3.36 2,-6.25 3.07,-9.32 z"
     id="path3269"
     style="opacity:0;fill:#ffffff" />
  <path
     d="m 4.82,217.16 c 1.45,4.87 3.99,9.28 6.3,13.77 1.39,2.63 0.66,5.69 0.38,8.49 -0.87,6.01 -0.16,12.12 -0.95,18.14 -0.86,6.45 -0.5,12.97 -0.6,19.46 -0.09,5.25 0.21,10.7 2.48,15.53 1.25,2.53 3.92,4.03 6.67,4.34 13.03,1.91 26.29,2.12 39.28,4.35 1.7,11 6.21,21.54 12.91,30.42 5.7,7.05 13.67,12.05 22.43,14.34 L 0,346 C 8.652538,321.07923 -14.71023,161.33291 4.82,217.16 z"
     id="path3271"
     style="opacity:0;fill:#ffffff" />
  <path
     d="m 338.2,213.28 c 3.36,-1.28 6.67,-2.68 9.91,-4.26 -1.51,8.56 -2.7,17.18 -4.27,25.74 -3,0.03 -6,0.17 -9,0.25 1.22,-7.23 2.35,-14.47 3.36,-21.73 z"
     id="path3275"
     style="fill:#cbcbcb" />
  <path
     d="m 318.26,212.26 c 0.52,0.52 0.52,0.52 0,0 z"
     id="path3277"
     style="fill:#d2d2d2" />
  <path
     d="m 20.02,215.04 c 2.34,1 4.8,1.73 7.06,2.92 1.347637,6.24055 1.532179,13.13032 2.08,19.01 -1.98,0.01 -3.97,0.02 -5.95,0.03 -1.13,-7.31 -1.87,-14.68 -3.19,-21.96 z"
     id="path3279"
     style="fill:#cbcbcb" />
  <path
     d="m 324,214.99 c 3.03,0.01 6.07,0.01 9.11,0.02 -1.08,5.29 -2.03,10.62 -2.34,16.01 -0.62,-0.02 -1.87,-0.06 -2.49,-0.08 -1.97,-2.97 -4.64,-5.63 -5.67,-9.12 0.08,-2.34 0.83,-4.58 1.39,-6.83 z"
     id="path3281"
     style="fill:#cbcbcb" />
  <path
     d="m 32.97,219 c 3.33,0 6.66,0 9.99,0 0.39,2.23 1.05,4.46 0.95,6.76 -2.06,4.38 -5.81,7.65 -9.71,10.4 -0.98,-5.67 -1.43,-11.41 -1.23,-17.16 z"
     id="path3283"
     style="fill:#cbcbcb" />
  <path
     d="m 264.38,231.35 c 10.5,-1.83 21.01,3.73 27.78,11.48 14.03,17.38 16.86,41.64 11.43,62.83 -5.4,10.78 -10.98,23.02 -22.59,28.36 -9.53,4.89 -21.56,3.52 -29.92,-3.08 -6.25,-4.25 -9.97,-11.01 -13.6,-17.43 -7.06,-13.1 -8,-28.7 -5.1,-43.1 1.71,-10.56 6.69,-20.39 13.39,-28.65 4.98,-5.18 11.45,-9.2 18.61,-10.41 z"
     id="path3287"
     style="fill:#6db6eb" />
  <path
     d="m 94.37,233.34 c 7.57,-1.56 15.25,1.56 21.22,6.07 7.71,5.79 12.23,14.71 15.43,23.58 6.06134,19.5814 4.94847,31.27701 -0.19,48.87 -4.21,12 -12.27,24.05 -25.01,27.96 -8.13,3 -17.14,0.19 -23.84,-4.81 -9.13,-6.56 -13.84,-17.31 -17.31,-27.65 -5.707843,-20.28714 -1.46269,-44.69617 9.42,-60.26 4.79,-6.83 12.06,-12.05 20.28,-13.76 z"
     id="path3289"
     style="fill:#6db6eb" />
  <path
     d="m 264.37,233.34 c 8.21,-1.6 16.81,1.87 22.56,7.75 7.59,7.7 12.93,17.73 14.52,28.47 3.5,15.8 1.21,32.66 -5.7,47.23 -4.44,6.98 -9.75,14.07 -17.71,17.22 -8.94,4.18 -19.96,1.61 -26.93,-5.13 -9.83,-9.12 -15.01,-22.45 -16.49,-35.57 -1.52,-9.02 -0.08,-18.2 1.63,-27.08 2.74,-9.19 6.74,-18.45 13.92,-25.05 3.75,-4.05 8.77,-6.85 14.2,-7.84 z"
     id="path3291"
     style="fill:#000000" />
  <path
     d="m 350.27992,234.88689 c 1.44003,-1.20186 2.71552,-1.45717 3.28145,-2.40689 2.05042,12.01491 7.19824,55.37105 0.42704,61.59829 -10.62911,3.34375 -34.21752,4.32357 -44.74841,4.24171 0.0428,-0.86696 -0.30899,-2.74716 -0.004,-3.21957 11.52685,-1.78752 32.02575,-0.0584 42.62612,-4.71339 5.24163,-20.2806 -1.82506,-42.71631 -1.5827,-55.50015 z"
     id="path3293"
     style="fill:#6db6eb" />
  <path
     d="m 94.37,235.34 c 7.2,-1.37 14.95,1.04 20.4,5.89 10.68,9.02 15.9,22.91 17.61,36.47 1.49,9.07 0.38,18.31 -1.44,27.25 -2.78,11.95 -9.28,23.43 -19.59,30.39 -8.12,5.16 -19.1,4.79 -26.91,-0.79 -5.85,-4.54 -10.86,-10.34 -13.79,-17.19 -8.48,-17.78 -8.55,-38.97 -1.51,-57.23 2.85,-7.73 7.91,-14.52 14.16,-19.83 3.19,-2.55 7.08,-4.17 11.07,-4.96 z"
     id="path3295"
     style="fill:#000000" />
  <path
     d="m 16.2,237.35 c 1.6,0.86 3.19,0.37 4.3,1.91 -1.084935,10.24018 -2.457761,38.47511 2.687791,47.16968 10.504232,5.81899 23.385518,4.51363 35.536382,6.36263 0.994924,0.41692 0.157028,2.20801 -0.06417,2.92769 -12.89,-1.01 -25.84,-1.95 -38.65,-3.71 C 14.996958,287.0096 15.560673,250.16566 16.2,237.35 z"
     id="path3297"
     style="fill:#6db6eb" />
  <path
     d="m 260.54,239.48 c 5.18,-1.64 10.8,-2.13 15.92,0.04 -5.18,1.64 -10.8,2.13 -15.92,-0.04 z"
     id="path3299"
     style="fill:#cbcbcb" />
  <path
     d="m 93.35,241.35 c 4.18,-2.31 9.05,-1.41 13.23,0.36 -4.29,1.92 -8.95,1.12 -13.23,-0.36 z"
     id="path3301"
     style="fill:#cbcbcb" />
  <path
     d="m 255.37,243.36 c 3.98,0.47 7.67,2.39 11.69,2.61 4.99,0.19 9.75,-1.89 14.72,-1.87 2.3,0.8 3.75,3.07 5.53,4.66 -5.74,1.66 -11.53,3.27 -17.46,4.13 -7.02,0.96 -13.25,-3.21 -19.99,-4.34 1.79,-1.78 3.48,-3.68 5.51,-5.19 z"
     id="path3303"
     style="fill:#cbcbcb" />
  <path
     d="m 86.36,244.36 c 3.52,0.58 6.71,2.38 10.21,3.1 4.59,1.39 9.18,-0.56 13.71,-1.2 2,-0.58 3.52,1.17 5.11,2.06 -5.62,2.08 -11.22,5.08 -17.4,4.78 -5.72,0.03 -10.86,-2.82 -16.16,-4.59 1.47,-1.42 2.89,-2.92 4.53,-4.15 z"
     id="path3305"
     style="fill:#cbcbcb" />
  <path
     d="m 78.15,252.66 c 6.71,1.52 12.78,5.75 19.84,5.45 7.36,0.28 13.86,-3.65 20.8,-5.43 1.2,2.35 2.38,4.71 3.52,7.08 -10.18,2.65 -20.51,6.38 -31.2,5.08 -5.64,-0.84 -11.05,-2.71 -16.51,-4.31 1.06,-2.67 2.28,-5.29 3.55,-7.87 z"
     id="path3307"
     style="fill:#cbcbcb" />
  <path
     d="m 247.24,252.71 c 7.74,1.95 15.28,6.35 23.5,5.06 6.52,-1.11 12.89,-2.94 19.29,-4.6 1.34,2.58 2.65,5.17 3.99,7.75 -7.01,1.94 -14.1,3.6 -21.27,4.8 -10.18,1.46 -20.26,-1.57 -29.87,-4.62 1.45,-2.79 2.88,-5.6 4.36,-8.39 z"
     id="path3309"
     style="fill:#cbcbcb" />
  <path
     d="m 72.2,264.9 c 7.68,2.64 15.59,5.24 23.8,5.18 9.87,0.14 19.05,-4.14 28.74,-5.35 0.9,3.92 1.72,7.86 2.43,11.82 -8.17,1.83 -15.95,5.26 -24.3,6.27 -5.8,0.58 -11.7,0.89 -17.45,-0.29 -5.43,-1.22 -10.65,-3.23 -15.67,-5.62 0.73,-4.02 1.56,-8.03 2.45,-12.01 z"
     id="path3311"
     style="fill:#cbcbcb" />
  <path
     d="m 241.2,265.94 c 9.01,2.76 18.29,5.7 27.84,5.09 9.13,-0.39 17.82,-3.39 26.67,-5.3 0.67,3.67 1.29,7.34 1.93,11.02 -9.89,2.34 -19.42,6.5 -29.66,7.26 -9.87,0.32 -19.26,-3.34 -28.19,-7.12 0.33,-3.67 0.94,-7.3 1.41,-10.95 z"
     id="path3313"
     style="fill:#cbcbcb" />
  <path
     d="m 93.99,288.08 c 11.74,0.56 23.1,-3.12 34.02,-6.99 0,4.84 -0.01,9.69 -0.04,14.53 -5.91,1.74 -11.51,4.46 -17.55,5.81 -6.57,1.71 -13.46,2.08 -20.19,1.3 -5.25,-0.94 -10.28,-2.84 -15.27,-4.66 -2.02,-0.89 -4.38,-1.52 -5.71,-3.41 -0.59,-4.17 -0.21,-8.4 -0.25,-12.58 7.8,3.64 16.26,6.46 24.99,6 z"
     id="path3315"
     style="fill:#cbcbcb" />
  <path
     d="m 238.91,282 c 8.33,3.45 17,6.61 26.08,7.04 11.42,0.09 22.16,-4.3 32.99,-7.34 0.22,5.04 -0.05,10.1 -1.1,15.04 -11.57,2.52 -22.78,8.01 -34.86,7.24 -7.66,-1.09 -14.55,-4.96 -21.83,-7.36 -0.86,-4.83 -1.38,-9.71 -1.28,-14.62 z"
     id="path3317"
     style="fill:#cbcbcb" />
  <path
     d="m 138.58289,299.15147 c 25.82802,1.48681 62.69493,1.9884 90.20848,1.14284 0.46,1.06 -0.22137,2.67569 0.24863,3.73569 -31.21921,3.14626 -65.71232,1.57002 -91.07,-1.02 0.44,-1.01 0.17289,-2.85853 0.61289,-3.85853 z"
     id="path3319"
     style="fill:#6db6eb" />
  <path
     d="m 70.66,301.81 c 8.78,3.24 17.83,6.78 27.37,6.27 9.8,0.08 19.07,-3.4 28.25,-6.4 -0.79,4.6 -1.91,9.26 -4.27,13.33 -0.96,1.92 -3.31,2.19 -5.09,2.95 -7.89,2.38 -16.17,5.42 -24.51,3.6 -5.82,-1.61 -11.46,-3.81 -17.17,-5.73 -1.81,-4.57 -3.78,-9.13 -4.58,-14.02 z"
     id="path3321"
     style="fill:#cbcbcb" />
  <path
     d="m 240.95,302.04 c 5.95,2.58 11.94,5.21 18.28,6.68 12.7,1.89 24.76,-3.6 36.82,-6.62 -1.83,4.38 -2.96,9.21 -5.93,13 -7.84,4.06 -16.78,7.39 -25.73,5.5 -6.14,-1.4 -12.34,-3.14 -17.91,-6.08 -2.68,-3.73 -3.84,-8.27 -5.53,-12.48 z"
     id="path3323"
     style="fill:#cbcbcb" />
  <path
     d="m 251.58,322.16 c 5.7,1.68 11.36,4.07 17.41,3.94 5.32,0.26 10.42,-1.44 15.48,-2.85 -4.21,4.58 -10.03,8.16 -16.46,7.83 -6.63,0.01 -12.26,-4.12 -16.43,-8.92 z"
     id="path3325"
     style="fill:#cbcbcb" />
  <path
     d="m 79.68,322.85 c 6.01,1.73 11.93,4.39 18.31,4.25 6.72,0.33 12.98,-2.44 19.39,-3.97 -3.55,3.56 -6.86,7.73 -11.73,9.54 -6.57,2.84 -14.58,1.29 -19.9,-3.41 -2.2,-1.96 -4.15,-4.18 -6.07,-6.41 z"
     id="path3327"
     style="fill:#cbcbcb" />
  <g
     transform="scale(0.99265751,1.0073968)"
     id="text3050"
     style="font-size:41.38562775px;font-style:normal;font-variant:normal;font-weight:normal;font-stretch:normal;line-height:125%;letter-spacing:0px;word-spacing:0px;fill:#ffffff;fill-opacity:1;stroke:none;font-family:Blippo Blk BT;-inkscape-font-specification:Blippo Blk BT">
    <path
       d="m 106.90538,218.06244 0,-25.1547 c 0,-2.62969 0.0647,-4.61275 0.194,-5.94919 0.15088,-1.33637 0.37721,-2.59734 0.67898,-3.7829 1.07775,-4.20319 3.02847,-7.45799 5.85219,-9.76442 2.84525,-2.3279 6.28327,-3.49187 10.31407,-3.49191 2.78058,4e-5 5.3564,0.63592 7.72747,1.90761 2.37103,1.27179 4.32175,3.06086 5.85219,5.3672 1.20705,1.87533 2.08002,3.95538 2.61893,6.24018 0.53884,2.28486 0.80828,5.44267 0.80832,9.47343 l 0,25.1547 -13.83832,0 0,-28.54962 c -2e-5,-1.8537 -0.23713,-3.16855 -0.71132,-3.94456 -0.45267,-0.79751 -1.2071,-1.19627 -2.26327,-1.19631 -1.01311,4e-5 -1.7352,0.35569 -2.16628,1.06698 -0.40957,0.71134 -0.61434,2.06931 -0.61432,4.07389 l 0,4.97921 3.65357,0 0,12.51269 -3.65357,0 0,11.05772 -14.45264,0"
       id="path3053"
       style="font-size:66.21700287px" />
    <path
       d="m 159.89838,203.83613 0,14.22631 -12.90067,0 0,-16.42492 c 0,-3.70744 0.34488,-6.59581 1.03464,-8.66512 0.68975,-2.09081 1.8645,-3.94454 3.52424,-5.56119 1.25019,-1.25016 2.70515,-2.22013 4.36489,-2.90993 1.68128,-0.71128 3.36257,-1.06694 5.04388,-1.06697 0.81907,3e-5 1.62738,0.0324 2.42494,0.097 0.79751,0.0647 1.57349,0.16169 2.32794,0.29099 l 0,13.57966 c -0.15091,-0.0215 -0.37724,-0.0539 -0.67899,-0.097 -0.71133,-0.10775 -1.16399,-0.16164 -1.35796,-0.16166 -1.4011,2e-5 -2.38185,0.45267 -2.94226,1.35796 -0.56045,0.90533 -0.84066,2.68362 -0.84065,5.33487"
       id="path3055"
       style="font-size:66.21700287px" />
    <path
       d="m 188.48033,198.59826 -5.52886,0 c -0.0431,0.15091 -0.0755,0.31257 -0.097,0.48499 -1e-5,0.1509 -1e-5,0.38801 0,0.71131 -1e-5,1.8322 0.39876,3.22249 1.19631,4.1709 0.81907,0.92688 2.03693,1.39031 3.65357,1.3903 l 0.77598,0 0,13.61199 c -0.21557,0.0431 -0.4419,0.0647 -0.67898,0.0647 -0.23713,0.0216 -0.60356,0.0323 -1.09931,0.0323 -4.93611,0 -8.95611,-1.68129 -12.06003,-5.04388 -3.08237,-3.38413 -4.62355,-7.8029 -4.62355,-13.25633 l 0,-29.00227 12.90068,0 0,12.60968 5.56119,0 0,14.22631"
       id="path3057"
       style="font-size:66.21700287px" />
    <path
       d="m 205.61657,218.06244 -12.57735,0 0,-47.20548 12.57735,0 0,15.48728 c 1.03463,-0.9915 2.1016,-1.72437 3.20092,-2.19862 1.12084,-0.47417 2.32792,-0.71128 3.62125,-0.71131 3.47033,3e-5 6.1647,1.17478 8.08313,3.52424 1.93992,2.34953 2.90989,5.67978 2.90992,9.99075 l 0,21.11314 -12.90067,0 0,-16.74825 c -2e-5,-1.78904 -0.19402,-2.99612 -0.58199,-3.62124 -0.36645,-0.62507 -0.99155,-0.93762 -1.87528,-0.93764 -0.88378,2e-5 -1.51965,0.32334 -1.90762,0.96997 -0.36645,0.64667 -0.54967,1.84298 -0.54966,3.58891 l 0,16.74825"
       id="path3059"
       style="font-size:66.21700287px" />
    <path
       d="m 246.42021,184.37195 12.57735,0 0,29.84292 c -3e-5,5.86296 -1.92921,10.6805 -5.78752,14.45264 -3.83682,3.79366 -8.68669,5.6905 -14.54964,5.69052 -0.84065,-2e-5 -1.67052,-0.0647 -2.4896,-0.194 -0.79755,-0.12934 -1.61664,-0.33411 -2.45727,-0.61431 l 0,-11.44572 c 0.60353,0.32332 1.19629,0.56043 1.77829,0.71132 0.60353,0.15088 1.2394,0.22632 1.90761,0.22633 2.60815,-1e-5 4.70976,-0.70055 6.30485,-2.10162 1.6166,-1.40107 2.52191,-3.33025 2.71593,-5.78752 -1.03466,0.99153 -2.11241,1.7244 -3.23325,2.19861 -1.09933,0.47421 -2.29563,0.71132 -3.58891,0.71132 -3.49193,0 -6.19708,-1.17475 -8.11547,-3.52425 -1.9184,-2.34949 -2.87759,-5.67973 -2.87759,-9.99074 l 0,-20.1755 12.90067,0 0,15.8106 c -1e-5,1.78909 0.18321,2.99617 0.54966,3.62125 0.38797,0.62511 1.02384,0.93765 1.90762,0.93764 0.88373,10e-6 1.50883,-0.32331 1.87528,-0.96998 0.38797,-0.64663 0.58197,-1.84293 0.58199,-3.58891 l 0,-15.8106"
       id="path3061"
       style="font-size:66.21700287px" />
  </g>
</svg>
